<svg width="120" height="121" viewBox="0 0 120 121" fill="none" xmlns="http://www.w3.org/2000/svg">
<path d="M56.2871 4.02606C50.2587 3.18113 34.8469 4.76197 21.4263 17.8448C15.5889 24.4953 3.70134 40.2002 2.85028 49.8161C-0.0411505 57.6113 -1.68326 78.3531 14.8797 98.9586C24.5632 111.415 52.0809 131.535 84.6831 112.369C98.3764 104.519 123.439 82.049 114.143 54.9675C110.488 56.5211 102.457 57.1589 99.5766 47.2813C88.802 50.0614 67.6128 48.0663 69.053 17.8448C64.7977 16.7546 56.2871 12.4645 56.2871 4.02606Z" fill="#F5AF5B" stroke="#FF8E26"/>
<circle cx="42.586" cy="54.3817" r="10.8763" fill="#6C410E"/>
<ellipse cx="82.2527" cy="75.4946" rx="9.59677" ry="7.67742" fill="#6C410E"/>
<ellipse cx="46.4248" cy="92.129" rx="4.47849" ry="3.83871" fill="#6C410E"/>
<ellipse cx="21.4731" cy="77.414" rx="6.39785" ry="5.75806" fill="#6C410E"/>
<ellipse cx="31.0699" cy="33.2688" rx="3.19892" ry="3.83871" fill="#6C410E"/>
<ellipse cx="86.0914" cy="7.03763" rx="8.3172" ry="7.03763" fill="#F5AF5B"/>
<ellipse cx="86.7312" cy="30.0699" rx="5.11828" ry="4.47849" fill="#F5AF5B"/>
<ellipse cx="113.602" cy="23.672" rx="6.39785" ry="5.75806" fill="#F5AF5B"/>
</svg>
